<?xml version="1.0" encoding="utf-8"?>
<!-- Generator: Adobe Illustrator 16.0.0, SVG Export Plug-In . SVG Version: 6.00 Build 0)  -->
<!DOCTYPE svg PUBLIC "-//W3C//DTD SVG 1.1//EN" "http://www.w3.org/Graphics/SVG/1.1/DTD/svg11.dtd">
<svg version="1.1" id="圖層_1" xmlns="http://www.w3.org/2000/svg" xmlns:xlink="http://www.w3.org/1999/xlink" x="0px" y="0px"
	 width="294.729px" height="294.202px" viewBox="0 0 294.729 294.202" enable-background="new 0 0 294.729 294.202"
	 xml:space="preserve">
<g>
	<g opacity="0.4">
		<path fill="#666666" d="M154.707-0.001c0,0.787,6.293,1.836,18.879,3.146c14.158,2.799,24.297,5.945,30.416,9.438
			c3.846,0.612,5.768,1.836,5.768,3.671l2.623-0.524c15.995,7.955,29.281,17.396,39.856,28.319
			c13.547,14.16,21.588,25.349,24.124,33.563c4.457,5.243,8.653,14.86,12.586,28.845c2.445,8.566,4.369,20.803,5.77,36.71
			c0,30.416-8.568,58.911-25.697,85.48c-4.285,6.118-9.355,12.412-15.209,18.881c-17.568,15.819-29.455,24.561-35.66,26.221
			c-4.982,4.456-11.977,7.603-20.978,9.438c-12.412,5.595-22.728,8.392-30.942,8.392c-5.419,0.699-8.74,1.573-9.963,2.621
			c-0.787,0-2.186-0.522-4.195-1.573c-3.497,0.701-5.596,1.051-6.293,1.051l-2.098-1.051c-2.274,0.701-3.848,1.051-4.721,1.051
			c-3.234-1.051-6.03-1.574-8.391-1.574l-4.719,0.523c-0.352-0.699-0.525-1.223-0.525-1.57h-3.672
			c-0.963-1.051-3.584-1.75-7.865-2.1c-1.836-1.574-6.031-2.799-12.586-3.671c-18.795-6.468-36.799-17.306-54.016-32.516
			c-1.313,0-2.186-1.224-2.623-3.671c-2.799-0.609-8.043-5.854-15.732-15.732c-11.102-14.945-17.221-26.481-18.355-34.611
			c-4.719-7.605-7.693-17.917-8.916-30.941c0-0.697-0.35-3.845-1.047-9.441c0.697-1.135,1.047-2.009,1.047-2.622
			c-0.699,0-1.225-1.223-1.572-3.67c0.262-10.836,0.787-16.256,1.572-16.256l-0.523-1.05c0.961-5.243,1.659-7.867,2.098-7.867
			c-0.7-1.397-1.05-2.622-1.05-3.67c2.099-6.206,3.673-12.501,4.722-18.881c2.098-5.769,4.369-11.188,6.816-16.256
			c0-2.535,1.396-5.33,4.195-8.393c12.936-26.744,32.516-47.021,58.736-60.832l1.049,0.525c1.484-2.098,6.379-4.896,14.684-8.391
			c18.268-6.992,38.545-10.49,60.834-10.49C153.133,0.176,153.658-0.001,154.707-0.001z M143.168,5.769h-4.195
			c-8.914,0-21.5,2.447-37.758,7.34c-1.05,0-4.896,1.576-11.539,4.721c-4.455,1.662-7.604,3.234-9.439,4.721
			c-0.963,0-2.71,0.874-5.244,2.621c-2.535,1.137-10.576,7.081-24.123,17.831c0,0.438-4.021,4.456-12.063,12.061
			c-1.311,2.449-4.108,6.12-8.391,11.013c-10.051,15.82-16.344,28.933-18.879,39.331c-0.524,0.354-1.572,2.449-3.146,6.295
			c0.697,0.088,1.049,0.437,1.049,1.05c-2.447,11.887-4.021,18.354-4.721,19.404c-0.701,0-1.047,0.522-1.047,1.571
			c1.396,2.537,2.098,4.109,2.098,4.721c-0.701,3.67-1.051,5.594-1.051,5.769l0.525,5.244c-1.049,1.75-1.572,2.973-1.572,3.67
			c0.699,0.088,1.047,0.439,1.047,1.05l-0.523,3.671c1.049,1.661,2.273,7.603,3.671,17.832c2.445,8.389,5.942,18.879,10.489,31.464
			c2.97,3.847,5.068,7.692,6.293,11.538c2.795,2.275,6.99,7.865,12.586,16.781c4.02,5.945,6.99,8.914,8.915,8.914
			c0,2.013,7.517,8.481,22.552,19.403c13.896,9.093,23.16,13.637,27.793,13.637c0,0.786,2.623,1.835,7.867,3.147
			c0,0.438,2.623,1.137,7.865,2.097c12.063,3.146,20.453,4.72,25.174,4.72h6.816c0.873,0,2.445,0.352,4.721,1.049
			c2.359-1.049,4.281-1.574,5.77-1.574c0.084,0.703,0.435,1.051,1.047,1.051h4.196c1.134,0,2.36-0.525,3.671-1.573
			c1.135,0,2.01,0.175,2.621,0.522c12.412-2.445,22.375-5.066,29.895-7.865l9.438-3.672c0-0.435,4.72-3.057,14.159-7.865
			c7.516-3.319,18.879-12.586,34.088-27.796c4.195-5.942,8.392-11.187,12.586-15.731c9.701-16.695,15.119-28.232,16.258-34.611
			c4.895-15.033,7.342-29.02,7.342-41.955c0-1.836-0.176-4.807-0.525-8.915l1.051-3.671c-1.4,0-2.099-2.971-2.099-8.915
			c0-0.35,0.175-0.875,0.524-1.574c-2.447-6.556-4.195-13.195-5.244-19.929c-2.447-3.67-4.372-8.737-5.769-15.208
			c-0.525,0-1.05-0.525-1.573-1.571v-3.672c-1.225,0-5.07-5.769-11.539-17.307c-6.643-9.438-14.508-18.18-23.598-26.221
			c-4.982-4.545-7.955-6.817-8.915-6.817v-2.623h-1.049c-3.147,0-4.72-1.05-4.72-3.146l-1.049,0.525
			c-1.75-1.399-3.147-2.101-4.195-2.101l-9.44-6.292c-3.146-1.746-4.896-2.621-5.245-2.621c-0.611,0.35-1.309,0.523-2.098,0.523
			c-3.146-0.96-4.719-2.011-4.719-3.145l-1.049,0.522c-1.049,0-1.573-0.522-1.573-1.572h-2.623
			c-3.409-1.398-9.003-2.797-16.78-4.196c-0.178-0.438-2.973-1.311-8.393-2.623c-0.35,0-0.873,0.176-1.572,0.524
			c-2.186-0.349-4.283-0.872-6.293-1.571L158.9,6.292l-2.098-1.049c0,0.701-0.35,1.049-1.049,1.049h-8.915
			c-1.749,0-2.622-0.348-2.622-1.049L143.168,5.769z M4.195,128.483v1.572h0.523v-1.572H4.195z M51.082,221.19l2.088-0.211
			c0.703,0.014,1.087,0.328,1.148,0.937l0.211,2.086c0.072,0.698-0.242,1.081-0.937,1.152l-1.564,0.158
			c-0.522,0.053-1.098-0.416-1.725-1.407l-0.159-1.565C50.16,221.636,50.473,221.253,51.082,221.19z M50.869,110.128h1.049v1.573
			c-3.146,12.323-4.719,19.319-4.719,20.977v5.247c0,1.746-0.352,2.619-1.05,2.619l0.525,1.05v11.536
			c0,4.898,2.445,14.861,7.341,29.893c1.573,1.227,3.147,4.371,4.721,9.441c0.436,0.087,3.757,4.456,9.965,13.109l10.486,11.016
			c-0.35,0-0.523,0.174-0.523,0.522c-3.848,0-10.314-6.993-19.402-20.977c-4.459-5.944-7.782-11.886-9.967-17.832
			c-3.146-11.799-4.719-21.238-4.719-28.319c0.348-1.047,0.698-1.572,1.049-1.572c-0.439-0.525-0.787-2.271-1.049-5.243
			C44.576,134.077,46.675,123.064,50.869,110.128z M142.119,43.525c2.797,0.7,4.895,1.05,6.294,1.05
			c0.085-0.699,0.437-1.05,1.048-1.05c6.469,0.264,10.489,0.787,12.063,1.572c0.348,0,0.523-0.171,0.523-0.522
			c6.379,0,15.646,2.971,27.797,8.916v1.047c-5.947-2.535-11.364-4.279-16.258-5.244c0-0.698-5.945-1.92-17.832-3.67v-0.526
			l-3.67,0.526h-7.342c-12.413,0-25.873,3.321-40.381,9.965c-10.053,4.457-15.471,7.604-16.256,9.44
			c-2.975,0.086-10.316,7.079-22.027,20.975c-1.836,1.399-4.283,5.243-7.342,11.537c-0.613,0.089-2.188,3.235-4.721,9.442
			l-1.572,1.046v-1.046c0-2.447,1.396-5.07,4.194-7.867c1.835-5.768,4.458-9.966,7.866-12.587
			c3.06-6.467,10.926-14.685,23.602-24.648C104.1,51.743,120.18,45.799,136.352,44.05C137.836,44.05,139.76,43.876,142.119,43.525z
			 M78.664,219.208h3.146c6.555,5.159,14.596,10.405,24.123,15.734v1.049h-0.525c-1.223,0-8.215-3.846-20.977-11.537
			c-2.709-3.15-4.634-4.722-5.768-4.722V219.208z M246.48,157.851c0.699,0.089,1.049,0.438,1.049,1.049
			c-2.012,12.062-5.855,23.601-11.539,34.613c-2.271,5.157-8.564,13.374-18.879,24.647c-0.611,0-4.281,2.972-11.012,8.913
			c-16.958,11.188-32.34,16.783-46.149,16.783c0,0.963-3.847,1.66-11.537,2.098c-20.804-2.098-33.04-4.371-36.71-6.818
			c-0.351,0-1.573-0.524-3.672-1.572v-1.049h1.573c0.873,0.699,3.321,1.398,7.343,2.097c0,0.352,0.172,0.524,0.525,0.524
			l3.145-0.524c0,2.013,5.594,3.587,16.783,4.72h16.258c20.976,0,42.301-9.613,63.979-28.844
			c11.713-12.322,20.104-26.483,25.172-42.478C244.121,162.571,245.343,157.851,246.48,157.851z M192.465,54.014
			c7.08,2.801,14.246,8.044,21.501,15.733h-0.525c-2.185-1.135-6.729-4.458-13.634-9.965c-4.457-2.358-7.431-3.758-8.916-4.193
			v-0.526C190.891,54.365,191.416,54.014,192.465,54.014z M213.966,69.747h0.525c10.05,7.431,17.218,16.52,21.499,27.27
			c0.612,0,1.486,1.924,2.623,5.769c1.748,5.244,2.971,7.867,3.671,7.867c3.147,8.392,4.722,17.831,4.722,28.317
			c0.697,0.089,1.047,0.441,1.047,1.051v9.439c-0.611,4.195-1.31,6.292-2.098,6.292v-17.305c0-5.33-2.447-16.17-7.342-32.515
			c-4.021-9.789-11.713-21.152-23.074-34.088C215.016,71.845,214.491,71.146,213.966,69.747z M259.363,191.729l1.043-0.105
			c0.521-0.053,1.096,0.414,1.726,1.407l0.105,1.043c0.054,0.522-0.417,1.095-1.408,1.724c-1.802-0.432-2.776-1.387-2.927-2.865
			L259.363,191.729z"/>
	</g>
	<g opacity="0.4">
		<g>
			<path fill="#666666" d="M100.275,269.241l6.684-20.409l7.697,2.519c1.356,0.444,2.37,0.848,3.041,1.212
				c0.949,0.496,1.685,1.09,2.208,1.778c0.524,0.691,0.854,1.526,0.991,2.506c0.136,0.979,0.039,1.975-0.292,2.987
				c-0.568,1.735-1.603,3.022-3.1,3.863c-1.498,0.841-3.689,0.788-6.577-0.157l-5.234-1.713l-2.716,8.296L100.275,269.241z
				 M106.482,259.418l5.276,1.727c1.743,0.571,3.09,0.654,4.036,0.244c0.945-0.412,1.611-1.204,1.997-2.382
				c0.281-0.855,0.304-1.656,0.071-2.404c-0.233-0.75-0.67-1.339-1.312-1.766c-0.415-0.268-1.235-0.604-2.46-1.005l-5.221-1.709
				L106.482,259.418z"/>
			<path fill="#666666" d="M122.236,275.76l10.379-20.529l3.046,0.31l6.569,22.255l-3.222-0.327l-1.832-6.726l-8.934-0.909
				l-3.006,6.232L122.236,275.76z M129.293,267.616l7.243,0.735l-1.628-6.144c-0.497-1.867-0.852-3.396-1.063-4.585
				c-0.412,1.343-0.935,2.664-1.567,3.964L129.293,267.616z"/>
			<path fill="#666666" d="M148.35,272.888l2.611-0.652c0.293,1.04,0.724,1.865,1.289,2.472c0.567,0.606,1.366,1.044,2.397,1.309
				c1.032,0.267,2.149,0.303,3.354,0.111c1.071-0.171,1.99-0.479,2.761-0.93c0.768-0.449,1.308-0.983,1.621-1.601
				c0.312-0.618,0.416-1.256,0.311-1.911c-0.105-0.665-0.392-1.216-0.857-1.651c-0.464-0.434-1.166-0.75-2.108-0.947
				c-0.604-0.13-1.917-0.275-3.939-0.433c-2.023-0.157-3.458-0.38-4.305-0.67c-1.097-0.37-1.957-0.907-2.578-1.615
				c-0.623-0.706-1.011-1.547-1.166-2.521c-0.17-1.07-0.026-2.12,0.434-3.147c0.459-1.027,1.233-1.876,2.323-2.543
				c1.091-0.669,2.349-1.115,3.776-1.344c1.572-0.251,2.998-0.218,4.28,0.098c1.281,0.314,2.324,0.913,3.126,1.793
				c0.803,0.88,1.328,1.938,1.574,3.175l-2.658,0.633c-0.358-1.317-1.01-2.253-1.953-2.804c-0.943-0.553-2.23-0.698-3.858-0.439
				c-1.698,0.27-2.886,0.779-3.563,1.525c-0.677,0.744-0.946,1.557-0.806,2.435c0.12,0.763,0.495,1.346,1.123,1.749
				c0.619,0.404,2.109,0.686,4.473,0.838c2.362,0.152,3.999,0.354,4.909,0.604c1.325,0.372,2.352,0.947,3.079,1.727
				c0.727,0.779,1.182,1.738,1.363,2.876c0.179,1.129,0.026,2.244-0.462,3.344c-0.487,1.102-1.291,2.026-2.414,2.773
				c-1.121,0.747-2.439,1.241-3.953,1.481c-1.919,0.307-3.571,0.283-4.958-0.07c-1.387-0.352-2.538-1.032-3.455-2.036
				C149.204,275.509,148.614,274.299,148.35,272.888z"/>
			<path fill="#666666" d="M171.957,269.859l2.492-1.017c0.438,0.991,0.98,1.744,1.627,2.267c0.646,0.52,1.499,0.839,2.558,0.957
				c1.058,0.118,2.17-0.004,3.337-0.363c1.034-0.319,1.902-0.756,2.601-1.311c0.698-0.552,1.157-1.155,1.38-1.812
				c0.221-0.656,0.233-1.301,0.038-1.937c-0.199-0.645-0.56-1.149-1.082-1.513c-0.521-0.364-1.261-0.579-2.22-0.642
				c-0.617-0.044-1.938-0.002-3.963,0.128c-2.023,0.13-3.478,0.11-4.355-0.058c-1.139-0.21-2.066-0.622-2.781-1.233
				c-0.715-0.613-1.219-1.391-1.51-2.333c-0.319-1.035-0.324-2.094-0.015-3.176c0.31-1.083,0.957-2.029,1.941-2.847
				c0.985-0.814,2.168-1.436,3.55-1.861c1.521-0.469,2.938-0.639,4.25-0.509c1.313,0.132,2.43,0.577,3.349,1.336
				c0.918,0.758,1.587,1.732,2.006,2.921l-2.542,1.001c-0.542-1.255-1.318-2.087-2.328-2.5c-1.013-0.414-2.308-0.378-3.883,0.11
				c-1.643,0.507-2.747,1.178-3.313,2.011s-0.717,1.676-0.455,2.523c0.229,0.738,0.682,1.263,1.36,1.575
				c0.669,0.313,2.185,0.381,4.546,0.197c2.36-0.182,4.009-0.213,4.945-0.094c1.365,0.183,2.462,0.607,3.292,1.275
				c0.829,0.67,1.415,1.554,1.754,2.654c0.338,1.093,0.343,2.218,0.016,3.375c-0.326,1.16-0.993,2.188-1.998,3.087
				c-1.005,0.898-2.241,1.573-3.705,2.024c-1.857,0.574-3.496,0.784-4.919,0.63c-1.422-0.154-2.657-0.663-3.707-1.528
				C173.173,272.332,172.418,271.219,171.957,269.859z"/>
			<path fill="#666666" d="M198.893,267.334l-8.367-19.778l14.301-6.049l0.987,2.334l-11.685,4.941l2.563,6.06l10.941-4.631
				l0.981,2.322l-10.94,4.629l2.849,6.73l12.142-5.137l0.985,2.334L198.893,267.334z"/>
			<path fill="#666666" d="M221.063,254.997l-9.308-19.352l6.666-3.207c1.505-0.724,2.699-1.183,3.58-1.379
				c1.231-0.278,2.399-0.27,3.504,0.02c1.436,0.373,2.73,1.106,3.882,2.207c1.15,1.1,2.141,2.512,2.972,4.235
				c0.707,1.469,1.16,2.854,1.363,4.155c0.202,1.301,0.215,2.451,0.035,3.454c-0.179,1-0.484,1.87-0.918,2.602
				c-0.433,0.736-1.047,1.429-1.843,2.082c-0.797,0.652-1.779,1.263-2.95,1.825L221.063,254.997z M222.525,251.483l4.133-1.987
				c1.276-0.614,2.221-1.214,2.832-1.803c0.611-0.585,1.028-1.197,1.252-1.838c0.316-0.897,0.396-1.941,0.243-3.132
				c-0.155-1.186-0.583-2.511-1.285-3.974c-0.974-2.023-2.055-3.419-3.241-4.187c-1.188-0.768-2.346-1.107-3.473-1.02
				c-0.814,0.068-1.982,0.467-3.505,1.198l-4.065,1.955L222.525,251.483z"/>
		</g>
		<g>
			<path fill="#666666" d="M35.979,112.581l1.32-2.616c2.148,1.092,3.651,2.525,4.51,4.303c0.858,1.778,1.042,3.76,0.555,5.941
				c-0.506,2.259-1.376,3.992-2.612,5.202s-2.809,1.989-4.718,2.337c-1.909,0.349-3.864,0.299-5.866-0.148
				c-2.183-0.488-3.992-1.331-5.432-2.528c-1.438-1.197-2.406-2.66-2.906-4.388c-0.498-1.728-0.541-3.516-0.128-5.366
				c0.47-2.096,1.397-3.739,2.784-4.931c1.388-1.19,3.111-1.85,5.172-1.98l0.032,2.875c-1.634,0.145-2.901,0.603-3.804,1.371
				c-0.903,0.768-1.511,1.853-1.824,3.254c-0.36,1.611-0.275,3.043,0.254,4.297c0.531,1.255,1.396,2.247,2.6,2.977
				c1.203,0.729,2.496,1.248,3.877,1.557c1.782,0.399,3.396,0.488,4.842,0.266c1.445-0.222,2.62-0.808,3.522-1.756
				c0.902-0.949,1.497-2.062,1.782-3.339c0.348-1.554,0.194-2.969-0.461-4.246C38.824,114.384,37.658,113.356,35.979,112.581z"/>
			<path fill="#666666" d="M35.117,104.854c-3.248-1.469-5.396-3.491-6.443-6.065c-1.049-2.575-0.949-5.242,0.299-8
				c0.816-1.806,1.984-3.239,3.504-4.299c1.519-1.061,3.223-1.621,5.11-1.684s3.81,0.348,5.768,1.234
				c1.983,0.896,3.578,2.101,4.782,3.609c1.204,1.51,1.876,3.181,2.018,5.013c0.141,1.832-0.174,3.598-0.942,5.298
				c-0.833,1.842-2.022,3.287-3.567,4.334c-1.547,1.048-3.258,1.598-5.135,1.648C38.632,105.994,36.835,105.632,35.117,104.854z
				 M36.364,102.204c2.358,1.066,4.503,1.272,6.433,0.618c1.931-0.654,3.328-1.937,4.194-3.851c0.882-1.948,0.921-3.862,0.12-5.74
				c-0.801-1.88-2.459-3.389-4.978-4.527c-1.593-0.721-3.104-1.08-4.536-1.079s-2.708,0.372-3.831,1.112
				c-1.123,0.741-1.976,1.756-2.56,3.047c-0.83,1.832-0.913,3.694-0.252,5.585C31.617,99.26,33.42,100.872,36.364,102.204z"/>
			<path fill="#666666" d="M54.959,87.642L37.621,74.974l1.719-2.354l20.268,0.839l-13.613-9.946l1.607-2.199l17.34,12.669
				l-1.721,2.353l-20.279-0.847l13.626,9.955L54.959,87.642z"/>
			<path fill="#666666" d="M69.711,57.582l-1.688-1.871l6.745-6.104l5.337,5.917c-0.292,1.763-0.8,3.35-1.526,4.76
				c-0.726,1.412-1.669,2.641-2.829,3.687c-1.566,1.413-3.292,2.361-5.177,2.845c-1.885,0.484-3.727,0.386-5.523-0.295
				c-1.797-0.68-3.402-1.804-4.815-3.37c-1.399-1.552-2.382-3.293-2.946-5.224s-0.531-3.771,0.099-5.522
				c0.63-1.752,1.738-3.345,3.327-4.776c1.152-1.04,2.363-1.793,3.632-2.261c1.269-0.467,2.469-0.605,3.6-0.416
				c1.132,0.19,2.319,0.697,3.562,1.521l-1.432,2.24c-0.973-0.597-1.845-0.967-2.619-1.111c-0.773-0.144-1.616-0.057-2.528,0.26
				c-0.912,0.315-1.771,0.836-2.575,1.563c-0.964,0.87-1.666,1.77-2.104,2.697c-0.439,0.928-0.658,1.826-0.658,2.694
				c0,0.867,0.14,1.696,0.416,2.484c0.484,1.353,1.246,2.605,2.285,3.758c1.282,1.422,2.6,2.391,3.953,2.906
				c1.352,0.515,2.706,0.583,4.06,0.204c1.354-0.38,2.557-1.045,3.608-1.992c0.914-0.824,1.647-1.805,2.2-2.941
				s0.874-2.107,0.964-2.911l-2.678-2.97L69.711,57.582z"/>
			<path fill="#666666" d="M85.395,55.497L74.519,36.981l8.21-4.823c1.65-0.969,3.003-1.54,4.057-1.712
				c1.055-0.171,2.086,0.013,3.094,0.553c1.008,0.541,1.813,1.32,2.41,2.339c0.771,1.314,0.997,2.671,0.676,4.071
				s-1.299,2.745-2.932,4.032c0.831-0.068,1.504-0.051,2.02,0.055c1.101,0.236,2.262,0.659,3.48,1.268l6.18,3.148l-3.081,1.811
				l-4.714-2.414c-1.368-0.69-2.457-1.194-3.267-1.513c-0.81-0.317-1.466-0.485-1.972-0.507c-0.504-0.021-0.973,0.035-1.406,0.164
				c-0.313,0.104-0.785,0.342-1.416,0.713l-2.842,1.669l4.83,8.223L85.395,55.497z M81.77,43.714l5.266-3.094
				c1.121-0.658,1.929-1.288,2.424-1.891c0.496-0.603,0.758-1.255,0.787-1.957c0.029-0.703-0.132-1.353-0.483-1.951
				c-0.514-0.875-1.255-1.408-2.222-1.599c-0.968-0.191-2.138,0.116-3.51,0.923l-5.86,3.441L81.77,43.714z"/>
			<path fill="#666666" d="M101.883,45.874l0.621-22.996l2.887-1.02l15.441,17.319l-3.053,1.079l-4.529-5.298l-8.465,2.991
				l-0.059,6.918L101.883,45.874z M104.787,35.495l6.864-2.426l-4.095-4.861c-1.246-1.475-2.22-2.706-2.92-3.691
				c0.201,1.39,0.293,2.807,0.275,4.253L104.787,35.495z"/>
			<path fill="#666666" d="M126.293,38.425l-3.437-18.627l-6.958,1.284l-0.459-2.492l16.738-3.088l0.461,2.492l-6.987,1.288
				l3.437,18.627L126.293,38.425z"/>
			<path fill="#666666" d="M152.899,14.908l2.841,0.001l-0.004,12.407c-0.002,2.159-0.246,3.872-0.734,5.142
				c-0.49,1.27-1.371,2.302-2.646,3.097c-1.275,0.796-2.948,1.192-5.019,1.192c-2.012-0.001-3.657-0.349-4.936-1.042
				c-1.279-0.694-2.192-1.698-2.738-3.012s-0.818-3.108-0.818-5.384l0.006-12.407l2.842,0.001l-0.006,12.394
				c0,1.865,0.173,3.239,0.519,4.123c0.347,0.885,0.942,1.566,1.787,2.045c0.844,0.479,1.877,0.718,3.097,0.719
				c2.09,0,3.58-0.473,4.469-1.419c0.889-0.947,1.334-2.769,1.336-5.464L152.899,14.908z"/>
			<path fill="#666666" d="M160.189,36.977l3.747-21.145l2.799,0.496l-3.305,18.649l10.414,1.845l-0.442,2.496L160.189,36.977z"/>
			<path fill="#666666" d="M174.377,39.334l14.99-17.448l2.883,1.03l1.052,23.181l-3.049-1.09l-0.17-6.968l-8.456-3.021
				l-4.409,5.331L174.377,39.334z M183.179,33.114l6.854,2.449l-0.108-6.354c-0.036-1.931-0.016-3.5,0.063-4.706
				c-0.721,1.205-1.545,2.362-2.47,3.474L183.179,33.114z"/>
			<path fill="#666666" d="M198.006,48.943l9.071-16.626l-6.211-3.39l1.214-2.224l14.941,8.152l-1.213,2.225l-6.237-3.403
				L200.5,50.305L198.006,48.943z"/>
			<path fill="#666666" d="M209.471,55.961l12.557-17.421l2.307,1.662l-12.559,17.42L209.471,55.961z"/>
			<path fill="#666666" d="M222.669,52.309c2.486-2.555,5.118-3.886,7.897-3.996c2.777-0.11,5.252,0.891,7.42,3.002
				c1.422,1.383,2.371,2.969,2.852,4.758s0.428,3.582-0.155,5.378c-0.583,1.797-1.624,3.465-3.124,5.004
				c-1.518,1.561-3.191,2.651-5.021,3.269c-1.829,0.619-3.628,0.684-5.399,0.193c-1.771-0.491-3.325-1.387-4.661-2.688
				c-1.449-1.411-2.403-3.021-2.862-4.83c-0.46-1.811-0.395-3.606,0.196-5.39C220.401,55.226,221.355,53.659,222.669,52.309z
				 M224.738,54.384c-1.805,1.854-2.729,3.801-2.77,5.838c-0.042,2.038,0.689,3.789,2.193,5.253
				c1.533,1.492,3.318,2.182,5.357,2.067s4.023-1.161,5.951-3.142c1.219-1.252,2.071-2.553,2.558-3.898s0.571-2.673,0.257-3.98
				c-0.314-1.309-0.979-2.456-1.994-3.443c-1.441-1.404-3.164-2.116-5.166-2.138C229.121,50.92,226.992,52.067,224.738,54.384z"/>
			<path fill="#666666" d="M232.105,76.826l17.773-12.053l1.636,2.413l-7.624,18.798l13.954-9.463l1.529,2.255l-17.773,12.052
				l-1.636-2.412l7.637-18.807l-13.967,9.472L232.105,76.826z"/>
			<path fill="#666666" d="M249.712,91.274l1.272,2.372c-0.938,0.54-1.631,1.158-2.08,1.857c-0.449,0.697-0.678,1.578-0.683,2.644
				c-0.005,1.064,0.233,2.158,0.714,3.279c0.428,0.997,0.953,1.813,1.577,2.448c0.623,0.636,1.272,1.029,1.948,1.181
				c0.676,0.15,1.318,0.096,1.929-0.167c0.62-0.265,1.083-0.677,1.392-1.234s0.441-1.316,0.402-2.276
				c-0.021-0.617-0.203-1.927-0.545-3.927c-0.344-1.999-0.479-3.445-0.403-4.338c0.089-1.154,0.4-2.119,0.933-2.896
				c0.533-0.775,1.254-1.357,2.16-1.747c0.996-0.428,2.048-0.544,3.157-0.351c1.108,0.194,2.12,0.737,3.034,1.631
				c0.916,0.894,1.657,2.004,2.227,3.332c0.629,1.463,0.947,2.854,0.955,4.174s-0.316,2.476-0.975,3.471
				c-0.657,0.993-1.555,1.761-2.693,2.304l-1.263-2.424c1.189-0.669,1.937-1.529,2.24-2.579c0.305-1.05,0.131-2.333-0.52-3.85
				c-0.678-1.579-1.462-2.606-2.351-3.081c-0.888-0.473-1.741-0.535-2.559-0.185c-0.708,0.305-1.182,0.81-1.42,1.519
				c-0.242,0.698-0.148,2.212,0.283,4.541c0.43,2.328,0.635,3.965,0.615,4.908c-0.036,1.376-0.344,2.511-0.921,3.407
				s-1.396,1.571-2.454,2.025c-1.05,0.451-2.168,0.574-3.355,0.372c-1.187-0.203-2.279-0.757-3.279-1.661
				c-0.999-0.905-1.801-2.062-2.406-3.471c-0.766-1.786-1.147-3.395-1.145-4.825c0.002-1.43,0.379-2.712,1.131-3.848
				C247.381,92.746,248.408,91.877,249.712,91.274z"/>
		</g>
	</g>
</g>
</svg>
