<?xml version="1.0" encoding="utf-8"?>
<!-- Generator: Adobe Illustrator 16.0.0, SVG Export Plug-In . SVG Version: 6.00 Build 0)  -->
<!DOCTYPE svg PUBLIC "-//W3C//DTD SVG 1.1//EN" "http://www.w3.org/Graphics/SVG/1.1/DTD/svg11.dtd">
<svg version="1.1" id="圖層_1" xmlns="http://www.w3.org/2000/svg" xmlns:xlink="http://www.w3.org/1999/xlink" x="0px" y="0px"
	 width="407.901px" height="262.036px" viewBox="0 0 407.901 262.036" enable-background="new 0 0 407.901 262.036"
	 xml:space="preserve">
<g>
	<g>
		<g>
			<rect x="0" y="2.475" fill-rule="evenodd" clip-rule="evenodd" fill="#FFFFFF" width="407.911" height="259.547"/>
		</g>
	</g>
</g>
<g>
	<defs>
		<polygon id="SVGID_35_" points="35.73,2.461 26.755,2.459 34.063,14.705 27.98,70.127 7.73,73.287 -0.02,60.537 13.23,0.871 
			32.063,-2.629 35.73,2.662 		"/>
	</defs>
	<clipPath id="SVGID_2_">
		<use xlink:href="#SVGID_35_"  overflow="visible"/>
	</clipPath>
	<path clip-path="url(#SVGID_2_)" fill-rule="evenodd" clip-rule="evenodd" d="M18.775,1.996c4.65-2.92,10.554-2.41,16.111,0.768
		c5.514,3.152,7.722,8.361,6.779,14.645c-2.248,14.977-4.613,29.934-7.01,44.885c-0.133,0.83-0.955,1.549-1.457,2.32
		c-0.247-0.867-0.816-1.783-0.695-2.6c2.23-14.734,4.512-29.465,6.854-44.18c0.827-5.199-0.507-9.654-4.857-12.617
		c-4.456-3.035-9.456-3.768-14.494-1.236c-3.347,1.684-5.317,4.568-5.917,8.225c-2.537,15.416-5.044,30.834-7.449,46.268
		c-0.75,4.807,2.346,8.424,7.511,9.234c4.99,0.785,8.99-1.762,9.752-6.49c2.195-13.611,4.296-27.24,6.385-40.867
		c0.419-2.727-0.851-4.377-3.415-4.795c-2.571-0.418-4.122,0.742-4.576,3.602c-1.846,11.65-3.65,23.307-5.471,34.961
		c-0.072,0.473-0.024,1.018-0.245,1.402c-0.439,0.777-1.028,1.473-1.557,2.199c-0.223-0.814-0.734-1.672-0.622-2.436
		c1.4-9.461,2.891-18.91,4.36-28.357c0.442-2.836,0.85-5.68,1.351-8.504c0.664-3.746,3.368-5.693,7.012-5.141
		c3.775,0.574,6.002,3.305,5.432,7.078c-2.101,13.869-4.229,27.734-6.494,41.576c-0.939,5.744-6.236,9.016-12.404,8.012
		c-6.36-1.041-10.185-5.869-9.256-11.971c1.378-9.059,2.902-18.1,4.365-27.145c1.004-6.217,1.982-12.439,3.021-18.648
		C12.485,8.012,14.416,4.994,18.775,1.996z"/>
</g>
<g>
	<g>
		<path d="M54.712,74.081h3.916c0.075,2.555,0.799,4.589,2.171,6.103s3.174,2.27,5.407,2.27c2.402,0,4.309-0.752,5.719-2.256
			c1.409-1.504,2.114-3.543,2.114-6.116c0-3.746-2.896-6.574-8.685-8.485c-0.454-0.151-0.795-0.265-1.021-0.341
			c-3.028-1.04-5.208-2.36-6.542-3.959s-2.001-3.685-2.001-6.259c0-3.292,1.026-5.988,3.079-8.088
			c2.053-2.101,4.706-3.15,7.961-3.15c3.103,0,5.563,0.955,7.379,2.866s2.828,4.598,3.037,8.061h-3.832
			c-0.208-2.252-0.879-3.987-2.015-5.208c-1.135-1.221-2.658-1.831-4.569-1.831c-2.043,0-3.714,0.667-5.009,2.001
			c-1.297,1.334-1.944,3.032-1.944,5.095c0,1.078,0.193,2.011,0.582,2.796c0.387,0.785,1.007,1.499,1.858,2.143
			c0.87,0.644,2.535,1.362,4.995,2.156c1.419,0.454,2.498,0.823,3.235,1.107c2.687,1.041,4.621,2.37,5.804,3.987
			c1.183,1.618,1.774,3.742,1.774,6.372c0,4.011-1.093,7.241-3.278,9.691c-2.186,2.451-5.085,3.676-8.698,3.676
			c-3.368,0-6.103-1.159-8.202-3.477C55.847,80.917,54.769,77.865,54.712,74.081z"/>
		<path d="M121.253,55.265c-1.854-2.573-3.926-4.465-6.215-5.676c-2.29-1.211-4.9-1.816-7.833-1.816
			c-4.598,0-8.528,1.702-11.793,5.108c-3.264,3.405-4.896,7.455-4.896,12.146c0,4.995,1.622,9.205,4.867,12.63
			s7.186,5.137,11.821,5.137c2.856,0,5.439-0.596,7.748-1.788c2.308-1.191,4.313-2.97,6.017-5.335h4.824
			c-1.892,3.519-4.427,6.239-7.605,8.159c-3.179,1.921-6.745,2.881-10.7,2.881c-6.073,0-11.14-2.072-15.197-6.216
			c-4.059-4.144-6.088-9.318-6.088-15.524c0-2.895,0.549-5.638,1.646-8.23c1.098-2.592,2.706-4.929,4.825-7.01
			c1.968-1.968,4.177-3.458,6.627-4.47c2.45-1.013,5.104-1.519,7.961-1.519c4.105,0,7.8,1.003,11.083,3.008
			c3.282,2.006,5.879,4.844,7.79,8.515H121.253z"/>
		<path d="M139.804,48.623v37.265h-4.002V44.565h11.097c2.441,0,4.404,0.184,5.89,0.553s2.833,0.979,4.044,1.831
			c1.646,1.154,2.947,2.696,3.902,4.626s1.434,3.974,1.434,6.13c0,3.198-0.951,5.951-2.853,8.259
			c-1.901,2.309-4.281,3.567-7.138,3.775l9.99,16.148h-4.825l-12.261-19.924h3.917c2.611,0,4.734-0.766,6.371-2.299
			c1.637-1.532,2.455-3.5,2.455-5.903c0-1.456-0.251-2.781-0.752-3.973c-0.501-1.192-1.244-2.232-2.228-3.122
			c-0.813-0.738-1.793-1.263-2.938-1.575c-1.146-0.313-3.184-0.469-6.116-0.469H139.804z"/>
		<path d="M170.954,64.971c0-2.876,0.553-5.619,1.66-8.23c1.106-2.61,2.71-4.947,4.811-7.01c2.024-1.986,4.252-3.481,6.684-4.484
			c2.431-1.003,5.066-1.504,7.904-1.504c2.895,0,5.577,0.506,8.046,1.519c2.469,1.012,4.726,2.521,6.769,4.526
			c2.101,2.063,3.68,4.371,4.74,6.925c1.059,2.555,1.589,5.308,1.589,8.259c0,2.934-0.454,5.625-1.362,8.074
			c-0.908,2.451-2.271,4.679-4.087,6.685c-2.1,2.309-4.475,4.049-7.123,5.222c-2.649,1.173-5.525,1.76-8.628,1.76
			c-5.941,0-10.927-2.086-14.957-6.258C172.969,76.28,170.954,71.12,170.954,64.971z M175.211,65.027
			c0,5.033,1.637,9.253,4.91,12.658c3.273,3.406,7.313,5.108,12.118,5.108c4.692,0,8.656-1.722,11.892-5.165
			s4.854-7.682,4.854-12.715c0-4.692-1.665-8.736-4.995-12.133c-3.33-3.396-7.341-5.095-12.033-5.095
			c-1.911,0-3.751,0.327-5.521,0.979s-3.401,1.613-4.896,2.881c-1.968,1.665-3.515,3.699-4.641,6.102
			C175.773,60.052,175.211,62.512,175.211,65.027z"/>
		<path d="M241.781,85.888h-18.618V44.565h4.087v37.32h14.531V85.888z"/>
		<path d="M270.095,85.888h-18.618V44.565h4.087v37.32h14.531V85.888z"/>
	</g>
	<g>
		<path d="M56.925,105.232h11.75c3.235,0,5.955,0.321,8.159,0.965s4.148,1.674,5.833,3.093c2.364,1.987,4.2,4.419,5.506,7.294
			c1.306,2.877,1.958,5.951,1.958,9.225c0,3.651-0.719,6.977-2.157,9.976c-1.438,2.999-3.472,5.444-6.102,7.336
			c-1.741,1.23-3.623,2.11-5.647,2.64c-2.025,0.53-5.147,0.795-9.366,0.795h-9.934V105.232z M60.927,109.177v33.489h8.43
			c5.26,0,9.309-1.476,12.146-4.427c2.838-2.952,4.257-7.133,4.257-12.545c0-2.705-0.482-5.203-1.447-7.492s-2.346-4.21-4.144-5.762
			c-1.344-1.173-2.848-2.01-4.513-2.512c-1.665-0.501-4.087-0.752-7.266-0.752H60.927z"/>
		<path d="M97.953,125.638c0-2.876,0.553-5.619,1.66-8.23c1.106-2.61,2.71-4.947,4.811-7.01c2.024-1.986,4.252-3.481,6.684-4.484
			c2.431-1.003,5.066-1.504,7.904-1.504c2.895,0,5.577,0.506,8.046,1.519c2.469,1.012,4.726,2.521,6.769,4.526
			c2.101,2.063,3.68,4.371,4.74,6.925c1.059,2.555,1.589,5.308,1.589,8.259c0,2.934-0.454,5.625-1.362,8.074
			c-0.908,2.451-2.271,4.679-4.087,6.685c-2.1,2.309-4.475,4.049-7.123,5.222c-2.649,1.173-5.525,1.76-8.628,1.76
			c-5.941,0-10.927-2.086-14.957-6.258C99.968,136.947,97.953,131.787,97.953,125.638z M102.21,125.694
			c0,5.033,1.637,9.253,4.91,12.658c3.273,3.406,7.313,5.108,12.118,5.108c4.692,0,8.656-1.722,11.892-5.165
			s4.854-7.682,4.854-12.715c0-4.692-1.665-8.736-4.995-12.133c-3.33-3.396-7.341-5.095-12.033-5.095
			c-1.911,0-3.751,0.327-5.521,0.979s-3.401,1.613-4.896,2.881c-1.968,1.665-3.515,3.699-4.641,6.102
			C102.772,120.719,102.21,123.179,102.21,125.694z"/>
		<path d="M171.846,105.232l8.315,33.887l10.331-33.887h3.973l-12.8,41.322h-3.377l-8.287-33.717l-8.315,33.717h-3.378
			l-12.856-41.322h4.03l10.273,33.887l8.373-33.887H171.846z"/>
		<path d="M229.22,141.616l-0.482-36.384h4.03v41.322h-4.881l-22.677-36.441l0.454,36.441h-4.002v-41.322h4.882L229.22,141.616z"/>
	</g>
	<g>
		<path d="M58.051,219.888v-48.77h15.802c5.988,0,9.891,0.244,11.71,0.731c2.794,0.732,5.134,2.324,7.02,4.774
			c1.885,2.451,2.827,5.617,2.827,9.498c0,2.993-0.543,5.511-1.63,7.551c-1.087,2.041-2.468,3.644-4.142,4.808
			c-1.675,1.164-3.377,1.936-5.106,2.312c-2.352,0.466-5.755,0.699-10.213,0.699h-6.421v18.396H58.051z M67.897,179.368v13.839h5.39
			c3.881,0,6.476-0.254,7.784-0.765c1.309-0.51,2.334-1.309,3.077-2.396c0.743-1.086,1.114-2.351,1.114-3.792
			c0-1.774-0.521-3.238-1.563-4.392c-1.042-1.152-2.361-1.874-3.959-2.162c-1.176-0.222-3.537-0.333-7.085-0.333H67.897z"/>
		<path d="M104.44,219.888v-48.37h9.848v40.153h24.484v8.217H104.44z"/>
		<path d="M146.474,219.888v-48.77h36.161v8.25H156.32v10.813h24.484v8.217H156.32v13.273h27.246v8.217H146.474z"/>
		<path d="M236.576,219.888h-10.712l-4.258-11.078h-19.495l-4.024,11.078h-10.446l18.995-48.77h10.413L236.576,219.888z
			 M218.446,200.593l-6.721-18.098l-6.587,18.098H218.446z"/>
		<path d="M239.985,204.02l9.581-0.932c0.576,3.216,1.746,5.578,3.51,7.086c1.763,1.509,4.142,2.262,7.136,2.262
			c3.171,0,5.561-0.67,7.169-2.013c1.607-1.341,2.412-2.91,2.412-4.707c0-1.152-0.339-2.134-1.015-2.944
			c-0.677-0.809-1.858-1.514-3.543-2.112c-1.154-0.399-3.782-1.108-7.885-2.129c-5.278-1.309-8.982-2.916-11.111-4.824
			c-2.994-2.683-4.491-5.954-4.491-9.813c0-2.483,0.704-4.807,2.112-6.97c1.408-2.162,3.438-3.809,6.088-4.939
			c2.65-1.132,5.85-1.697,9.598-1.697c6.121,0,10.729,1.343,13.823,4.025c3.094,2.684,4.718,6.266,4.873,10.745l-9.847,0.433
			c-0.422-2.506-1.326-4.308-2.712-5.405c-1.386-1.099-3.465-1.647-6.237-1.647c-2.86,0-5.102,0.588-6.72,1.764
			c-1.043,0.754-1.563,1.763-1.563,3.027c0,1.153,0.487,2.141,1.464,2.961c1.241,1.042,4.258,2.129,9.049,3.26
			c4.79,1.131,8.333,2.301,10.628,3.51c2.296,1.209,4.093,2.861,5.39,4.957c1.298,2.096,1.946,4.686,1.946,7.768
			c0,2.795-0.776,5.412-2.329,7.851c-1.553,2.44-3.748,4.254-6.587,5.439c-2.839,1.187-6.376,1.78-10.612,1.78
			c-6.165,0-10.9-1.425-14.204-4.275C242.602,213.628,240.628,209.476,239.985,204.02z"/>
		<path d="M288.604,219.888v-48.77h36.161v8.25h-26.314v10.813h24.484v8.217h-24.484v13.273h27.246v8.217H288.604z"/>
	</g>
</g>
</svg>
