<?xml version="1.0" encoding="utf-8"?>
<!-- Generator: Adobe Illustrator 16.0.0, SVG Export Plug-In . SVG Version: 6.00 Build 0)  -->
<!DOCTYPE svg PUBLIC "-//W3C//DTD SVG 1.1//EN" "http://www.w3.org/Graphics/SVG/1.1/DTD/svg11.dtd">
<svg version="1.1" id="圖層_1" xmlns="http://www.w3.org/2000/svg" xmlns:xlink="http://www.w3.org/1999/xlink" x="0px" y="0px"
	 width="407.901px" height="275.005px" viewBox="0 0 407.901 275.005" enable-background="new 0 0 407.901 275.005"
	 xml:space="preserve">
<g>
	<g>
		<g>
			<rect x="0" y="15.443" fill-rule="evenodd" clip-rule="evenodd" fill="#FFFFFF" width="407.911" height="259.546"/>
		</g>
		<g>
			<g>
				<path d="M60.031,195.182l11.749,0.001c3.236,0,5.955,0.321,8.16,0.966c2.203,0.644,4.147,1.674,5.832,3.093
					c2.365,1.987,4.2,4.419,5.506,7.294c1.305,2.878,1.957,5.952,1.957,9.226c0,3.651-0.72,6.977-2.158,9.975
					c-1.438,2.999-3.472,5.444-6.102,7.336c-1.742,1.23-3.624,2.11-5.648,2.64c-2.025,0.529-5.146,0.794-9.365,0.794l-9.934-0.001
					L60.031,195.182z M64.032,199.127l-0.002,33.489h8.429c5.26,0,9.31-1.475,12.147-4.426c2.838-2.952,4.258-7.133,4.258-12.545
					c0-2.705-0.481-5.203-1.446-7.492c-0.966-2.289-2.347-4.21-4.144-5.762c-1.344-1.173-2.848-2.01-4.512-2.512
					c-1.666-0.502-4.088-0.753-7.266-0.753H64.032z"/>
				<path d="M101.058,215.59c0-2.876,0.554-5.619,1.66-8.23c1.107-2.61,2.711-4.947,4.812-7.009
					c2.024-1.986,4.253-3.481,6.685-4.484c2.431-1.003,5.065-1.504,7.904-1.503c2.895,0,5.576,0.506,8.045,1.519
					c2.469,1.012,4.726,2.522,6.77,4.527c2.1,2.063,3.679,4.371,4.738,6.925c1.06,2.555,1.589,5.308,1.589,8.259
					c-0.001,2.934-0.454,5.625-1.362,8.074c-0.909,2.451-2.271,4.679-4.088,6.685c-2.101,2.309-4.475,4.048-7.124,5.221
					s-5.524,1.76-8.628,1.76c-5.941-0.001-10.926-2.087-14.956-6.259C103.071,226.899,101.058,221.739,101.058,215.59z
					 M105.314,215.646c-0.001,5.033,1.636,9.254,4.909,12.659c3.272,3.406,7.313,5.108,12.118,5.109
					c4.692,0,8.656-1.722,11.892-5.164c3.236-3.443,4.854-7.682,4.854-12.715c0-4.692-1.665-8.736-4.994-12.133
					c-3.33-3.396-7.341-5.096-12.034-5.096c-1.91,0-3.75,0.326-5.52,0.979s-3.4,1.613-4.896,2.881
					c-1.969,1.665-3.515,3.699-4.641,6.102C105.878,210.672,105.314,213.131,105.314,215.646z"/>
				<path d="M174.952,195.189l8.313,33.888l10.333-33.886h3.974l-12.803,41.321h-3.377l-8.285-33.718l-8.318,33.717l-3.377-0.001
					l-12.854-41.322h4.029l10.271,33.888l8.375-33.887H174.952z"/>
				<path d="M232.324,231.578l-0.479-36.384h4.029l-0.003,41.322l-4.882-0.001l-22.674-36.442l0.452,36.441h-4.002l0.003-41.322
					h4.882L232.324,231.578z"/>
			</g>
			<g>
				<path d="M57.819,162.244h3.916c0.076,2.555,0.8,4.589,2.172,6.103c1.371,1.515,3.174,2.271,5.406,2.271
					c2.402,0,4.309-0.752,5.719-2.256s2.115-3.543,2.115-6.116c0-3.746-2.895-6.574-8.684-8.485
					c-0.455-0.151-0.795-0.265-1.022-0.341c-3.027-1.04-5.208-2.361-6.542-3.96c-1.333-1.599-2-3.685-2-6.259
					c0-3.292,1.026-5.988,3.08-8.088c2.053-2.1,4.707-3.149,7.961-3.149c3.104,0,5.563,0.955,7.379,2.866
					c1.816,1.912,2.828,4.599,3.036,8.062l-3.831-0.001c-0.209-2.252-0.88-3.987-2.016-5.208c-1.135-1.221-2.658-1.831-4.568-1.831
					c-2.044,0-3.714,0.667-5.01,2.001c-1.296,1.333-1.943,3.031-1.944,5.094c0,1.078,0.194,2.011,0.581,2.796
					c0.389,0.785,1.008,1.5,1.859,2.144c0.869,0.644,2.535,1.362,4.994,2.156c1.42,0.454,2.498,0.823,3.236,1.107
					c2.686,1.041,4.621,2.371,5.803,3.988c1.183,1.618,1.774,3.742,1.774,6.372c-0.001,4.011-1.093,7.241-3.279,9.691
					c-2.185,2.45-5.085,3.675-8.698,3.675c-3.369,0-6.103-1.16-8.203-3.478C58.954,169.08,57.876,166.028,57.819,162.244z"/>
				<path d="M124.362,143.433c-1.854-2.573-3.926-4.465-6.215-5.677c-2.289-1.211-4.9-1.816-7.833-1.816
					c-4.598-0.001-8.528,1.701-11.792,5.107c-3.264,3.405-4.896,7.455-4.896,12.146c-0.001,4.995,1.621,9.205,4.866,12.63
					c3.244,3.425,7.185,5.137,11.819,5.138c2.857,0,5.439-0.596,7.748-1.788c2.31-1.19,4.314-2.969,6.018-5.334h4.825
					c-1.892,3.519-4.429,6.239-7.606,8.159c-3.179,1.92-6.746,2.88-10.699,2.88c-6.074-0.001-11.141-2.073-15.198-6.217
					c-4.059-4.145-6.087-9.319-6.087-15.525c0-2.895,0.549-5.638,1.646-8.23c1.098-2.591,2.707-4.928,4.826-7.009
					c1.967-1.968,4.176-3.458,6.627-4.47c2.45-1.013,5.104-1.518,7.961-1.518c4.105,0,7.8,1.003,11.082,3.009
					c3.283,2.006,5.879,4.844,7.79,8.515H124.362z"/>
				<path d="M142.913,136.792l-0.002,37.265h-4.002l0.002-41.322l11.098,0.001c2.441,0,4.403,0.184,5.889,0.553
					s2.833,0.979,4.044,1.831c1.646,1.154,2.946,2.697,3.902,4.627c0.955,1.93,1.433,3.974,1.433,6.13
					c0,3.198-0.951,5.951-2.853,8.259s-4.281,3.566-7.138,3.774l9.988,16.149l-4.824-0.001l-12.26-19.924h3.917
					c2.61,0,4.735-0.766,6.372-2.299c1.636-1.532,2.455-3.5,2.455-5.903c0-1.456-0.251-2.781-0.752-3.973
					c-0.502-1.192-1.244-2.232-2.228-3.122c-0.813-0.738-1.793-1.263-2.938-1.575c-1.146-0.313-3.184-0.469-6.116-0.469
					L142.913,136.792z"/>
				<path d="M174.063,153.142c0-2.876,0.553-5.619,1.66-8.229s2.711-4.947,4.811-7.01c2.025-1.986,4.253-3.481,6.685-4.484
					c2.431-1.002,5.065-1.503,7.904-1.503c2.895,0,5.577,0.506,8.046,1.519s4.725,2.522,6.769,4.527
					c2.101,2.063,3.679,4.371,4.739,6.925c1.059,2.555,1.588,5.308,1.588,8.259c0,2.934-0.454,5.625-1.362,8.074
					c-0.909,2.451-2.271,4.679-4.087,6.685c-2.102,2.309-4.476,4.049-7.125,5.222c-2.648,1.172-5.524,1.759-8.627,1.759
					c-5.941-0.001-10.927-2.087-14.957-6.259C176.077,164.452,174.063,159.291,174.063,153.142z M178.319,153.199
					c0,5.033,1.636,9.253,4.91,12.658c3.271,3.406,7.312,5.109,12.117,5.109c4.692,0,8.656-1.721,11.893-5.164
					c3.235-3.443,4.854-7.682,4.854-12.715c0-4.692-1.664-8.736-4.994-12.133c-3.33-3.396-7.341-5.096-12.033-5.096
					c-1.911,0-3.751,0.327-5.52,0.979c-1.77,0.651-3.401,1.612-4.896,2.88c-1.969,1.665-3.515,3.699-4.641,6.102
					C178.883,148.224,178.319,150.684,178.319,153.199z"/>
				<path d="M244.889,174.063l-18.618-0.001l0.004-41.322h4.086l-0.002,37.32l14.53,0.001V174.063z"/>
				<path d="M273.201,174.065l-18.618-0.001l0.004-41.322h4.086l-0.002,37.32l14.53,0.001V174.065z"/>
			</g>
		</g>
		<g>
			<path d="M53.094,101.52l0.003-48.77l15.803,0.001c5.987,0,9.891,0.245,11.709,0.732c2.795,0.732,5.135,2.324,7.02,4.774
				c1.885,2.451,2.828,5.617,2.827,9.498c0,2.993-0.544,5.511-1.631,7.551c-1.087,2.041-2.468,3.644-4.142,4.808
				c-1.676,1.164-3.377,1.936-5.107,2.312c-2.351,0.465-5.755,0.698-10.213,0.698l-6.42-0.001L62.94,101.52H53.094z M62.943,61
				l-0.001,13.839l5.389,0.001c3.881,0,6.477-0.254,7.785-0.765c1.309-0.51,2.334-1.308,3.077-2.395
				c0.743-1.086,1.115-2.351,1.115-3.792c0-1.774-0.521-3.238-1.563-4.392c-1.043-1.153-2.361-1.875-3.959-2.163
				c-1.176-0.222-3.537-0.333-7.086-0.333L62.943,61z"/>
			<path d="M99.483,101.522l0.004-48.37l9.847,0.001l-0.003,40.153l24.484,0.002v8.217L99.483,101.522z"/>
			<path d="M141.517,101.525l0.004-48.77l36.16,0.003v8.25l-26.314-0.002l-0.001,10.813l24.485,0.002l-0.001,8.217l-24.485-0.002
				V93.31l27.246,0.002l-0.001,8.217L141.517,101.525z"/>
			<path d="M231.62,101.532l-10.713-0.001l-4.257-11.079l-19.495-0.001l-4.025,11.078l-10.446-0.001l18.999-48.769l10.412,0.001
				L231.62,101.532z M213.49,82.235l-6.718-18.098l-6.589,18.097L213.49,82.235z"/>
			<path d="M235.03,85.664l9.58-0.932c0.576,3.216,1.746,5.579,3.51,7.087c1.763,1.509,4.142,2.262,7.135,2.262
				c3.172,0,5.562-0.669,7.17-2.012c1.607-1.341,2.412-2.91,2.412-4.707c0-1.152-0.338-2.134-1.014-2.944
				c-0.678-0.809-1.858-1.514-3.543-2.112c-1.154-0.4-3.781-1.109-7.885-2.13c-5.278-1.309-8.981-2.917-11.111-4.825
				c-2.993-2.683-4.49-5.954-4.49-9.813c0.001-2.483,0.705-4.807,2.113-6.97c1.408-2.162,3.438-3.809,6.088-4.939
				s5.85-1.696,9.598-1.696c6.121,0.001,10.729,1.344,13.822,4.026c3.094,2.684,4.719,6.266,4.873,10.746l-9.847,0.432
				c-0.422-2.506-1.325-4.308-2.711-5.405c-1.386-1.099-3.466-1.648-6.237-1.648c-2.861,0-5.102,0.588-6.721,1.764
				c-1.043,0.754-1.563,1.763-1.563,3.027c0,1.153,0.487,2.141,1.464,2.961c1.242,1.042,4.258,2.129,9.049,3.26
				c4.789,1.132,8.332,2.302,10.628,3.511s4.092,2.861,5.389,4.957c1.298,2.097,1.946,4.687,1.946,7.769
				c0,2.795-0.777,5.412-2.33,7.85c-1.553,2.44-3.748,4.254-6.587,5.439c-2.839,1.187-6.376,1.78-10.612,1.779
				c-6.166,0-10.9-1.426-14.205-4.276C237.646,95.272,235.673,91.12,235.03,85.664z"/>
			<path d="M283.648,101.535l0.003-48.77l36.162,0.003l-0.001,8.25l-26.314-0.002l-0.001,10.813l24.484,0.002v8.217l-24.484-0.002
				l-0.002,13.273l27.246,0.002v8.217L283.648,101.535z"/>
		</g>
	</g>
</g>
<g>
	<defs>
		<polygon id="SVGID_33_" points="44.313,15.43 36.98,15.43 27.98,70.059 7.73,73.219 -0.02,60.469 12.23,-2.031 35.48,-4.281 
			44.313,7.969 		"/>
	</defs>
	<clipPath id="SVGID_2_">
		<use xlink:href="#SVGID_33_"  overflow="visible"/>
	</clipPath>
	<path clip-path="url(#SVGID_2_)" fill-rule="evenodd" clip-rule="evenodd" d="M18.775,1.928c4.65-2.919,10.554-2.409,16.111,0.768
		c5.514,3.152,7.722,8.362,6.779,14.645c-2.248,14.977-4.613,29.934-7.01,44.885c-0.133,0.831-0.955,1.549-1.457,2.32
		c-0.247-0.866-0.816-1.782-0.695-2.599c2.23-14.734,4.512-29.465,6.854-44.181c0.827-5.199-0.507-9.654-4.857-12.617
		c-4.456-3.034-9.456-3.767-14.494-1.236c-3.347,1.684-5.317,4.569-5.917,8.225c-2.537,15.416-5.044,30.834-7.449,46.269
		c-0.75,4.806,2.346,8.424,7.511,9.234c4.99,0.785,8.99-1.762,9.752-6.49c2.195-13.611,4.296-27.241,6.385-40.868
		c0.419-2.727-0.851-4.376-3.415-4.794c-2.571-0.419-4.122,0.742-4.576,3.601c-1.846,11.65-3.65,23.308-5.471,34.961
		c-0.072,0.474-0.024,1.018-0.245,1.402c-0.439,0.778-1.028,1.473-1.557,2.199c-0.223-0.814-0.734-1.671-0.622-2.436
		c1.4-9.461,2.891-18.909,4.36-28.357c0.442-2.836,0.85-5.679,1.351-8.503c0.664-3.747,3.368-5.694,7.012-5.142
		c3.775,0.574,6.002,3.305,5.432,7.078c-2.101,13.87-4.229,27.734-6.494,41.577c-0.939,5.743-6.236,9.015-12.404,8.011
		c-6.36-1.041-10.185-5.868-9.256-11.97c1.378-9.06,2.902-18.1,4.365-27.146c1.004-6.217,1.982-12.438,3.021-18.647
		C12.485,7.944,14.416,4.927,18.775,1.928z"/>
</g>
</svg>
