<?xml version="1.0" encoding="utf-8"?>
<!-- Generator: Adobe Illustrator 16.0.0, SVG Export Plug-In . SVG Version: 6.00 Build 0)  -->
<!DOCTYPE svg PUBLIC "-//W3C//DTD SVG 1.1//EN" "http://www.w3.org/Graphics/SVG/1.1/DTD/svg11.dtd">
<svg version="1.1" id="圖層_1" xmlns="http://www.w3.org/2000/svg" xmlns:xlink="http://www.w3.org/1999/xlink" x="0px" y="0px"
	 width="339.503px" height="286.767px" viewBox="0 0 339.503 286.767" enable-background="new 0 0 339.503 286.767"
	 xml:space="preserve">
<g>
	
		<path fill-rule="evenodd" clip-rule="evenodd" fill="#FFFFFF" stroke="#000000" stroke-width="2" stroke-linejoin="round" stroke-miterlimit="10" d="
		M338.494,226.33C338.471,226.297,207.881,1.496,207.881,1.496C207.844,1.491,64.321-10.27,13.093,87.334
		C5.271,103.026,1,119.752,1,137.133c0,41.416,24.698,77.284,56.138,102.258c7.625,6.054,15.678,11.56,24.026,16.565
		c38.141,22.869,87.433,31.847,131.755,29.429c29.609-1.611,58.927-9.465,84.616-24.441c14.03-8.173,27.318-18.405,37.899-30.794
		C335.648,229.897,338.683,226.623,338.494,226.33z"/>
	<g>
		<g>
			<path fill="#231815" stroke="#000000" stroke-miterlimit="10" d="M50.243,137.563l1.904-41.072l17.453,0.809
				c4.389,0.203,7.563,0.72,9.518,1.551c1.955,0.829,3.486,2.216,4.594,4.157s1.605,4.127,1.494,6.555
				c-0.143,3.082-1.168,5.585-3.072,7.509s-4.672,3.063-8.301,3.42c1.744,1.129,3.172,2.347,4.281,3.651
				c1.109,1.306,2.58,3.601,4.412,6.887l4.645,8.245l-9.918-0.46l-5.582-9.215c-1.98-3.293-3.346-5.372-4.092-6.239
				c-0.746-0.868-1.551-1.477-2.414-1.825s-2.248-0.567-4.152-0.656l-1.682-0.078l-0.795,17.146L50.243,137.563z M59.636,114.244
				l6.135,0.285c3.979,0.184,6.471,0.131,7.477-0.159s1.807-0.833,2.406-1.629c0.598-0.796,0.926-1.811,0.982-3.043
				c0.064-1.383-0.254-2.516-0.951-3.399c-0.699-0.884-1.715-1.47-3.049-1.756c-0.67-0.124-2.684-0.265-6.045-0.421l-6.473-0.3
				L59.636,114.244z"/>
			<path fill="#231815" stroke="#000000" stroke-miterlimit="10" d="M92.226,139.508l1.904-41.072l30.455,1.411l-0.322,6.948
				l-22.162-1.026l-0.422,9.105l20.619,0.955l-0.32,6.92l-20.619-0.955l-0.518,11.178l22.945,1.063l-0.32,6.92L92.226,139.508z"/>
			<path fill="#231815" stroke="#000000" stroke-miterlimit="10" d="M168.108,143.024l-9.021-0.418l-3.152-9.496l-16.418-0.761
				l-3.822,9.173l-8.799-0.408l17.902-40.331l8.768,0.406L168.108,143.024z M153.593,126.067l-4.953-15.504l-6.254,14.984
				L153.593,126.067z"/>
			<path fill="#231815" stroke="#000000" stroke-miterlimit="10" d="M174.958,102.181l15.156,0.703
				c3.418,0.158,6.012,0.54,7.779,1.146c2.377,0.821,4.381,2.178,6.018,4.068c1.635,1.892,2.838,4.171,3.613,6.836
				c0.775,2.667,1.074,5.923,0.895,9.771c-0.156,3.381-0.713,6.274-1.666,8.683c-1.166,2.94-2.742,5.292-4.734,7.053
				c-1.502,1.334-3.496,2.336-5.98,3.008c-1.857,0.494-4.316,0.67-7.381,0.528l-15.604-0.724L174.958,102.181z M182.929,109.514
				l-1.262,27.203l6.193,0.287c2.314,0.107,3.992,0.055,5.031-0.159c1.361-0.273,2.502-0.792,3.426-1.554
				c0.926-0.762,1.711-2.05,2.355-3.864c0.646-1.813,1.043-4.308,1.189-7.483c0.148-3.175-0.02-5.625-0.502-7.351
				c-0.48-1.726-1.203-3.089-2.168-4.088s-2.215-1.703-3.748-2.111c-1.146-0.315-3.41-0.551-6.791-0.707L182.929,109.514z"/>
			<path fill="#231815" stroke="#000000" stroke-miterlimit="10" d="M225.878,145.701l0.801-17.286l-13.943-24.483l9.723,0.45
				l8.912,16.698l10.223-15.812l9.555,0.443l-16.205,23.143l-0.799,17.229L225.878,145.701z"/>
		</g>
	</g>
	
		<path fill-rule="evenodd" clip-rule="evenodd" fill="#FFFFFF" stroke="#000000" stroke-width="2" stroke-linejoin="round" stroke-miterlimit="10" d="
		M338.494,226.33c-58.061,15.417-96.12-14.471-96.12-14.471C138.326,142.808,207.881,1.496,207.881,1.496L338.494,226.33z"/>
	<g>
		<path d="M61.179,158.941c-0.781,0.541-1.766,0.785-2.971,0.73l-3.004-0.136l-0.239,5.306l-1.26-0.058l0.534-11.798l4.264,0.193
			c1.223,0.055,2.198,0.386,2.928,0.996c0.693,0.608,1.036,1.417,0.99,2.442C62.375,157.625,61.962,158.399,61.179,158.941z
			 M58.448,154.365l-3.004-0.136l-0.186,4.102l3.004,0.136c0.936,0.042,1.664-0.124,2.185-0.495
			c0.448-0.341,0.704-0.797,0.731-1.409C61.241,155.195,60.319,154.449,58.448,154.365z"/>
		<path d="M64.279,165.245l0.533-11.799l1.241,0.056l-0.479,10.612l6.602,0.299l-0.054,1.187L64.279,165.245z"/>
		<path d="M74.007,165.685l0.533-11.799l7.429,0.336l-0.054,1.187l-6.169-0.278l-0.181,4.012l5.467,0.247l-0.053,1.169l-5.467-0.247
			l-0.192,4.245l6.169,0.278l-0.054,1.187L74.007,165.685z"/>
		<path d="M92.747,166.515l-1.232-3.426l-5.793-0.262l-1.537,3.301l-1.313-0.06l5.443-11.56l1.366,0.062l4.378,12.004
			L92.747,166.515z M88.933,155.996l-2.672,5.683l4.82,0.218L88.933,155.996z"/>
		<path d="M102.359,166.318c-0.834,0.502-1.872,0.727-3.095,0.671c-2.266-0.103-3.605-1.172-4-3.209l1.19-0.414
			c0.325,1.564,1.28,2.383,2.862,2.454c0.973,0.044,1.754-0.118,2.367-0.524c0.558-0.371,0.868-0.879,0.897-1.526
			c0.03-0.684-0.392-1.279-1.251-1.806c-0.316-0.194-1.041-0.497-2.175-0.945c-1.099-0.41-1.873-0.824-2.325-1.204
			c-0.696-0.537-1.007-1.217-0.97-2.044c0.048-1.043,0.46-1.801,1.274-2.304c0.706-0.438,1.616-0.63,2.748-0.579
			c1.26,0.058,2.217,0.389,2.875,0.977c0.451,0.417,0.784,1.027,1.037,1.796l-1.173,0.416c-0.188-0.586-0.422-1.011-0.716-1.313
			c-0.449-0.418-1.141-0.664-2.076-0.706c-1.764-0.08-2.672,0.509-2.729,1.769c-0.023,0.521,0.351,1.007,1.125,1.438
			c0.298,0.176,0.917,0.438,1.839,0.786c1.186,0.468,2.05,0.903,2.572,1.306c0.834,0.686,1.23,1.498,1.187,2.469
			C103.774,164.923,103.286,165.747,102.359,166.318z"/>
		<path d="M105.564,167.112l0.533-11.799l7.429,0.335l-0.054,1.187l-6.169-0.278l-0.182,4.012l5.469,0.247l-0.053,1.169
			l-5.469-0.247l-0.191,4.245l6.169,0.278l-0.054,1.187L105.564,167.112z"/>
		<path d="M59.263,185.391c-0.834,0.503-1.872,0.727-3.095,0.672c-2.267-0.103-3.606-1.172-4-3.21l1.19-0.414
			c0.325,1.565,1.279,2.383,2.862,2.455c0.972,0.044,1.755-0.119,2.366-0.524c0.559-0.371,0.869-0.88,0.898-1.527
			c0.031-0.684-0.393-1.279-1.252-1.804c-0.315-0.195-1.041-0.499-2.174-0.947c-1.1-0.409-1.873-0.823-2.324-1.204
			c-0.697-0.536-1.008-1.217-0.971-2.044c0.047-1.043,0.459-1.799,1.274-2.304c0.706-0.437,1.616-0.629,2.749-0.578
			c1.258,0.057,2.216,0.389,2.875,0.977c0.449,0.418,0.783,1.026,1.035,1.796l-1.171,0.415c-0.19-0.586-0.423-1.01-0.717-1.313
			c-0.448-0.417-1.14-0.664-2.075-0.706c-1.764-0.08-2.674,0.51-2.73,1.77c-0.023,0.521,0.351,1.007,1.125,1.438
			c0.299,0.176,0.916,0.438,1.838,0.785c1.187,0.469,2.051,0.904,2.572,1.307c0.834,0.687,1.23,1.498,1.188,2.469
			C60.678,183.996,60.19,184.82,59.263,185.391z"/>
		<path d="M70.579,177.792c-0.479-1.373-1.455-2.102-2.93-2.169c-1.008-0.045-1.91,0.382-2.67,1.249
			c-0.854,0.935-1.307,2.177-1.374,3.687c-0.067,1.476,0.239,2.661,0.956,3.559c0.631,0.803,1.423,1.218,2.376,1.261
			c0.792,0.035,1.466-0.132,2.007-0.522c0.466-0.34,0.887-0.896,1.246-1.673l1.131,0.501c-0.955,2.012-2.422,2.954-4.437,2.863
			c-1.366-0.062-2.459-0.634-3.31-1.718c-0.887-1.121-1.292-2.564-1.212-4.327c0.081-1.78,0.634-3.25,1.678-4.411
			c1.025-1.144,2.241-1.7,3.661-1.637c2.051,0.093,3.411,1.091,4.065,2.959L70.579,177.792z"/>
		<path d="M81.458,187.061l-2.639-5.436l-3.902-0.177l-0.24,5.306l-1.26-0.057l0.534-11.798l5.107,0.231
			c1.224,0.055,2.2,0.386,2.911,0.995c0.711,0.608,1.053,1.418,1.007,2.443c-0.072,1.602-1.017,2.586-2.837,2.972l2.703,5.582
			L81.458,187.061z M79.005,176.316l-3.849-0.175l-0.186,4.102l3.849,0.175c0.936,0.042,1.666-0.124,2.186-0.495
			c0.449-0.342,0.703-0.798,0.73-1.41C81.798,177.146,80.876,176.4,79.005,176.316z"/>
		<path d="M93.312,185.939c-0.99,1.163-2.276,1.699-3.859,1.628c-1.583-0.072-2.814-0.722-3.695-1.97
			c-0.831-1.155-1.199-2.595-1.119-4.34c0.078-1.728,0.573-3.128,1.505-4.204c0.988-1.127,2.274-1.663,3.856-1.591
			c1.584,0.071,2.815,0.721,3.698,1.933c0.813,1.155,1.198,2.595,1.12,4.322C94.739,183.463,94.225,184.863,93.312,185.939z
			 M92.675,178.088c-0.662-0.913-1.576-1.404-2.729-1.456c-1.168-0.053-2.125,0.354-2.848,1.204
			c-0.76,0.866-1.154,2.021-1.221,3.479c-0.066,1.475,0.222,2.677,0.9,3.609c0.643,0.93,1.558,1.422,2.727,1.475
			c1.151,0.052,2.107-0.355,2.85-1.223c0.741-0.868,1.155-2.039,1.223-3.514C93.643,180.205,93.335,179.019,92.675,178.088z"/>
		<path d="M96.794,187.736l0.534-11.799l1.241,0.057l-0.48,10.612l6.602,0.299l-0.053,1.186L96.794,187.736z"/>
		<path d="M106.522,188.177l0.533-11.799l1.241,0.056l-0.479,10.612l6.602,0.299l-0.055,1.187L106.522,188.177z"/>
		<path d="M130.762,187.723c-1.162,0.993-2.749,1.426-4.765,1.335l-3.311-0.15l0.532-11.763l3.311,0.149
			c2.104,0.096,3.649,0.615,4.634,1.543c1.055,1.021,1.542,2.575,1.445,4.697C132.526,185.352,131.905,186.748,130.762,187.723z
			 M130.347,179.756c-0.76-0.756-2.055-1.192-3.871-1.274l-2.051-0.093l-0.424,9.39l2.051,0.092
			c1.707,0.078,3.021-0.277,3.941-1.102c0.846-0.754,1.31-1.851,1.375-3.29C131.446,181.752,131.105,180.512,130.347,179.756z"/>
		<path d="M143.173,188.193c-0.99,1.164-2.275,1.7-3.858,1.628c-1.583-0.071-2.815-0.721-3.696-1.969
			c-0.83-1.155-1.199-2.595-1.119-4.34c0.078-1.728,0.574-3.128,1.506-4.204c0.988-1.127,2.273-1.663,3.857-1.592
			c1.582,0.072,2.814,0.722,3.697,1.933c0.813,1.155,1.197,2.596,1.119,4.323C144.601,185.718,144.087,187.117,143.173,188.193z
			 M142.536,180.343c-0.66-0.913-1.576-1.404-2.727-1.457c-1.17-0.053-2.125,0.354-2.85,1.204c-0.76,0.867-1.153,2.021-1.219,3.479
			c-0.067,1.475,0.22,2.678,0.898,3.609c0.644,0.931,1.559,1.422,2.728,1.475c1.151,0.053,2.107-0.354,2.849-1.222
			c0.742-0.868,1.156-2.039,1.223-3.514C143.505,182.46,143.197,181.273,142.536,180.343z"/>
		<path d="M157.071,190.462l-1.313-0.059l-2.221-9.905l-3.104,9.664l-1.314-0.06l-2.738-11.946l1.259,0.057l2.229,10.085
			l3.112-9.844l1.296,0.059l2.211,10.084l3.131-9.842l1.259,0.057L157.071,190.462z"/>
		<path d="M170.126,191.053l-6.272-10.358l-0.454,10.054l-1.26-0.057l0.533-11.799l1.511,0.068l6.272,10.358l0.455-10.055
			l1.259,0.058l-0.534,11.799L170.126,191.053z"/>
		<path d="M56.839,196.336l-0.48,10.611l-1.223-0.056l0.48-10.611l-4.047-0.183l0.053-1.187l9.316,0.422l-0.053,1.186
			L56.839,196.336z"/>
		<path d="M70.135,207.553l0.24-5.306l-6.583-0.298l-0.24,5.306l-1.26-0.057l0.533-11.799l1.26,0.057l-0.238,5.288l6.582,0.298
			l0.24-5.288l1.26,0.057l-0.534,11.799L70.135,207.553z"/>
		<path d="M83.065,208.12l-1.234-3.427l-5.791-0.262l-1.537,3.301l-1.313-0.06l5.443-11.559l1.365,0.062l4.379,12.003L83.065,208.12
			z M79.251,197.601l-2.672,5.684l4.819,0.218L79.251,197.601z"/>
		<path d="M94.158,208.639l-6.272-10.357l-0.455,10.054l-1.26-0.058l0.533-11.799l1.512,0.068l6.273,10.359l0.455-10.055
			l1.258,0.057l-0.534,11.799L94.158,208.639z"/>
		<path d="M106.097,209.196l-4.742-5.927l-1.635,1.476l-0.188,4.154l-1.26-0.057l0.535-11.816l1.258,0.057l-0.273,6.043l6.408-5.766
			l1.637,0.074l-5.58,5.027l5.424,6.806L106.097,209.196z"/>
		<path d="M121.38,204.337l-0.25,5.521l-1.26-0.057l0.25-5.521l-4.393-6.489l1.492,0.067l3.577,5.406l4.05-5.062l1.494,0.068
			L121.38,204.337z"/>
		<path d="M136.183,208.899c-0.99,1.163-2.275,1.699-3.859,1.628c-1.582-0.072-2.814-0.722-3.695-1.97
			c-0.83-1.155-1.197-2.595-1.119-4.34c0.078-1.728,0.574-3.128,1.506-4.204c0.988-1.127,2.274-1.663,3.856-1.591
			c1.583,0.071,2.815,0.721,3.698,1.933c0.813,1.155,1.198,2.595,1.12,4.322C137.61,206.423,137.097,207.823,136.183,208.899z
			 M135.546,201.048c-0.661-0.913-1.576-1.404-2.728-1.456c-1.169-0.053-2.125,0.354-2.847,1.204
			c-0.762,0.866-1.156,2.021-1.222,3.479c-0.066,1.475,0.222,2.677,0.901,3.609c0.641,0.93,1.557,1.422,2.726,1.475
			c1.151,0.052,2.106-0.355,2.849-1.223c0.742-0.868,1.156-2.039,1.223-3.514C136.515,203.165,136.206,201.979,135.546,201.048z"/>
		<path d="M147.841,210.111c-0.789,0.722-1.957,1.028-3.506,0.959c-1.564-0.071-2.699-0.482-3.402-1.271
			c-0.791-0.828-1.129-2.159-1.047-3.958l0.313-6.925l1.26,0.058l-0.313,6.925c-0.066,1.475,0.157,2.493,0.707,3.095
			c0.48,0.563,1.313,0.853,2.536,0.908c1.205,0.055,2.079-0.158,2.626-0.675c0.584-0.55,0.918-1.544,0.984-3.019l0.313-6.925
			l1.242,0.056l-0.313,6.925C149.159,208.063,148.686,209.356,147.841,210.111z"/>
	</g>
	<polygon fill="#F95312" points="188.008,181.919 183.221,190.211 178.434,181.919 	"/>
</g>
</svg>
